G04 (created by PCBNEW (22-Jun-2014 BZR 4027)-stable) date Tue Nov  3 08:39:22 2015*
%MOIN*%
G04 Gerber Fmt 3.4, Leading zero omitted, Abs format*
%FSLAX34Y34*%
G01*
G70*
G90*
G04 APERTURE LIST*
%ADD10C,0.00590551*%
%ADD11R,0.0177X0.0787*%
%ADD12R,0.0787X0.0177*%
%ADD13R,0.0197X0.0906*%
%ADD14R,0.0787X0.0984*%
%ADD15C,0.0354*%
%ADD16R,0.06X0.06*%
%ADD17C,0.06*%
%ADD18R,0.19685X0.0787402*%
%ADD19R,0.0472X0.0787*%
%ADD20R,0.07X0.07*%
%ADD21C,0.0629921*%
%ADD22R,0.025X0.045*%
%ADD23R,0.0314X0.0314*%
G04 APERTURE END LIST*
G54D10*
G54D11*
X44576Y-46529D03*
X44891Y-46529D03*
X45206Y-46529D03*
X45521Y-46529D03*
X45836Y-46529D03*
X46151Y-46529D03*
X46466Y-46529D03*
X46781Y-46529D03*
X46779Y-50295D03*
X44569Y-50295D03*
X44889Y-50295D03*
X45209Y-50295D03*
X45519Y-50295D03*
X45839Y-50295D03*
X46149Y-50295D03*
X46469Y-50295D03*
G54D12*
X47569Y-47313D03*
X47569Y-47627D03*
X47569Y-47943D03*
X47569Y-48257D03*
X47569Y-48573D03*
X47569Y-48887D03*
X47569Y-49203D03*
X47569Y-49517D03*
X43789Y-47315D03*
X43789Y-47625D03*
X43789Y-47945D03*
X43789Y-48255D03*
X43789Y-48565D03*
X43789Y-48885D03*
X43789Y-49205D03*
X43789Y-49525D03*
G54D13*
X46299Y-42302D03*
X45984Y-42302D03*
X45669Y-42302D03*
X45354Y-42302D03*
X45039Y-42302D03*
G54D14*
X47421Y-42263D03*
X47421Y-40098D03*
X43917Y-42263D03*
X43917Y-40098D03*
G54D15*
X46535Y-41279D03*
X44803Y-41279D03*
G54D16*
X50263Y-43370D03*
G54D17*
X51263Y-43370D03*
X50263Y-44370D03*
X51263Y-44370D03*
X50263Y-45370D03*
X51263Y-45370D03*
X50263Y-46370D03*
X51263Y-46370D03*
X50263Y-47370D03*
X51263Y-47370D03*
G54D16*
X50263Y-49370D03*
G54D17*
X51263Y-49370D03*
X50263Y-50370D03*
X51263Y-50370D03*
X50263Y-51370D03*
X51263Y-51370D03*
G54D18*
X47440Y-44291D03*
X43897Y-44291D03*
G54D19*
X48858Y-52480D03*
X47598Y-52480D03*
X47598Y-54606D03*
X48858Y-54606D03*
X46299Y-52480D03*
X45039Y-52480D03*
X45039Y-54606D03*
X46299Y-54606D03*
G54D20*
X40058Y-40058D03*
X42618Y-40058D03*
X40058Y-41830D03*
X42618Y-41830D03*
G54D16*
X50263Y-41870D03*
G54D17*
X51263Y-41870D03*
G54D16*
X49263Y-41370D03*
G54D17*
X49263Y-42370D03*
G54D16*
X40263Y-43370D03*
G54D21*
X40263Y-44370D03*
X40263Y-45370D03*
X40263Y-46370D03*
X40263Y-47370D03*
X40263Y-48370D03*
X40263Y-49370D03*
X40263Y-50370D03*
X40263Y-51370D03*
X40263Y-52370D03*
X40263Y-53370D03*
X40263Y-54370D03*
G54D19*
X43740Y-52480D03*
X42480Y-52480D03*
X42480Y-54606D03*
X43740Y-54606D03*
G54D22*
X47928Y-46456D03*
X48528Y-46456D03*
X48912Y-40157D03*
X49512Y-40157D03*
X42229Y-44685D03*
X41629Y-44685D03*
X47928Y-45669D03*
X48528Y-45669D03*
X43410Y-45669D03*
X42810Y-45669D03*
X48528Y-51181D03*
X47928Y-51181D03*
X43410Y-46456D03*
X42810Y-46456D03*
X43410Y-50393D03*
X42810Y-50393D03*
X43410Y-51181D03*
X42810Y-51181D03*
X48528Y-50393D03*
X47928Y-50393D03*
G54D23*
X50492Y-40157D03*
X51082Y-40157D03*
X41634Y-43897D03*
X42224Y-43897D03*
G54D22*
X41629Y-43110D03*
X42229Y-43110D03*
G54D16*
X44263Y-51370D03*
G54D21*
X45263Y-51370D03*
X46263Y-51370D03*
X47263Y-51370D03*
M02*
