G04 (created by PCBNEW (22-Jun-2014 BZR 4027)-stable) date Tue Nov  3 08:39:22 2015*
%MOIN*%
G04 Gerber Fmt 3.4, Leading zero omitted, Abs format*
%FSLAX34Y34*%
G01*
G70*
G90*
G04 APERTURE LIST*
%ADD10C,0.00590551*%
%ADD11R,0.0177X0.0787*%
%ADD12R,0.0787X0.0177*%
%ADD13R,0.0197X0.0906*%
%ADD14R,0.0787X0.0984*%
%ADD15R,0.06X0.06*%
%ADD16C,0.06*%
%ADD17R,0.19685X0.0787402*%
%ADD18R,0.0472X0.0787*%
%ADD19R,0.07X0.07*%
%ADD20C,0.0629921*%
%ADD21R,0.025X0.045*%
%ADD22R,0.0314X0.0314*%
%ADD23C,0.035*%
%ADD24C,0.015748*%
%ADD25C,0.0102362*%
%ADD26C,0.00787402*%
%ADD27C,0.023622*%
%ADD28C,0.0629921*%
%ADD29C,0.01*%
G04 APERTURE END LIST*
G54D10*
G54D11*
X44576Y-46529D03*
X44891Y-46529D03*
X45206Y-46529D03*
X45521Y-46529D03*
X45836Y-46529D03*
X46151Y-46529D03*
X46466Y-46529D03*
X46781Y-46529D03*
X46779Y-50295D03*
X44569Y-50295D03*
X44889Y-50295D03*
X45209Y-50295D03*
X45519Y-50295D03*
X45839Y-50295D03*
X46149Y-50295D03*
X46469Y-50295D03*
G54D12*
X47569Y-47313D03*
X47569Y-47627D03*
X47569Y-47943D03*
X47569Y-48257D03*
X47569Y-48573D03*
X47569Y-48887D03*
X47569Y-49203D03*
X47569Y-49517D03*
X43789Y-47315D03*
X43789Y-47625D03*
X43789Y-47945D03*
X43789Y-48255D03*
X43789Y-48565D03*
X43789Y-48885D03*
X43789Y-49205D03*
X43789Y-49525D03*
G54D13*
X46299Y-42302D03*
X45984Y-42302D03*
X45669Y-42302D03*
X45354Y-42302D03*
X45039Y-42302D03*
G54D14*
X47421Y-42263D03*
X47421Y-40098D03*
X43917Y-42263D03*
X43917Y-40098D03*
G54D15*
X50263Y-43370D03*
G54D16*
X51263Y-43370D03*
X50263Y-44370D03*
X51263Y-44370D03*
X50263Y-45370D03*
X51263Y-45370D03*
X50263Y-46370D03*
X51263Y-46370D03*
X50263Y-47370D03*
X51263Y-47370D03*
G54D15*
X50263Y-49370D03*
G54D16*
X51263Y-49370D03*
X50263Y-50370D03*
X51263Y-50370D03*
X50263Y-51370D03*
X51263Y-51370D03*
G54D17*
X47440Y-44291D03*
X43897Y-44291D03*
G54D18*
X48858Y-52480D03*
X47598Y-52480D03*
X47598Y-54606D03*
X48858Y-54606D03*
X46299Y-52480D03*
X45039Y-52480D03*
X45039Y-54606D03*
X46299Y-54606D03*
G54D19*
X40058Y-40058D03*
X42618Y-40058D03*
X40058Y-41830D03*
X42618Y-41830D03*
G54D15*
X50263Y-41870D03*
G54D16*
X51263Y-41870D03*
G54D15*
X49263Y-41370D03*
G54D16*
X49263Y-42370D03*
G54D15*
X40263Y-43370D03*
G54D20*
X40263Y-44370D03*
X40263Y-45370D03*
X40263Y-46370D03*
X40263Y-47370D03*
X40263Y-48370D03*
X40263Y-49370D03*
X40263Y-50370D03*
X40263Y-51370D03*
X40263Y-52370D03*
X40263Y-53370D03*
X40263Y-54370D03*
G54D18*
X43740Y-52480D03*
X42480Y-52480D03*
X42480Y-54606D03*
X43740Y-54606D03*
G54D21*
X47928Y-46456D03*
X48528Y-46456D03*
X48912Y-40157D03*
X49512Y-40157D03*
X42229Y-44685D03*
X41629Y-44685D03*
X47928Y-45669D03*
X48528Y-45669D03*
X43410Y-45669D03*
X42810Y-45669D03*
X48528Y-51181D03*
X47928Y-51181D03*
X43410Y-46456D03*
X42810Y-46456D03*
X43410Y-50393D03*
X42810Y-50393D03*
X43410Y-51181D03*
X42810Y-51181D03*
X48528Y-50393D03*
X47928Y-50393D03*
G54D22*
X50492Y-40157D03*
X51082Y-40157D03*
X41634Y-43897D03*
X42224Y-43897D03*
G54D21*
X41629Y-43110D03*
X42229Y-43110D03*
G54D15*
X44263Y-51370D03*
G54D20*
X45263Y-51370D03*
X46263Y-51370D03*
X47263Y-51370D03*
G54D23*
X48740Y-49291D03*
X48425Y-48307D03*
X48503Y-47047D03*
X41614Y-48031D03*
X48523Y-47539D03*
X43110Y-51968D03*
X50748Y-53937D03*
X44133Y-50472D03*
X41574Y-49015D03*
X46850Y-49370D03*
X41496Y-49842D03*
X48346Y-49724D03*
X51653Y-54803D03*
X49645Y-53543D03*
X41574Y-48503D03*
X48818Y-47933D03*
X44685Y-48661D03*
X46732Y-48149D03*
X42244Y-51614D03*
X48228Y-54763D03*
X46929Y-54763D03*
X45669Y-54763D03*
X44370Y-54763D03*
X43110Y-54763D03*
X42755Y-43543D03*
X48976Y-45039D03*
X45472Y-41338D03*
X49212Y-52440D03*
X48818Y-49881D03*
X46968Y-52440D03*
X45669Y-52480D03*
X44409Y-52480D03*
X45196Y-43582D03*
X50866Y-48425D03*
X43996Y-46161D03*
X45570Y-45472D03*
X46062Y-43110D03*
G54D24*
X46469Y-50295D02*
X46469Y-50800D01*
X47039Y-51370D02*
X47263Y-51370D01*
X46469Y-50800D02*
X47039Y-51370D01*
X46149Y-50295D02*
X46149Y-51255D01*
X46149Y-51255D02*
X46263Y-51370D01*
G54D25*
X44783Y-51279D02*
X44783Y-51181D01*
X43410Y-51382D02*
X43897Y-51870D01*
X43897Y-51870D02*
X44586Y-51870D01*
X44586Y-51870D02*
X44783Y-51673D01*
X44783Y-51673D02*
X44783Y-51279D01*
X43410Y-51181D02*
X43410Y-51382D01*
X45519Y-50740D02*
X45374Y-50885D01*
X45374Y-50885D02*
X45078Y-50885D01*
X45519Y-50740D02*
X45519Y-50295D01*
X44783Y-51181D02*
X45078Y-50885D01*
X43572Y-43080D02*
X45403Y-43080D01*
X45403Y-43080D02*
X45826Y-43503D01*
X48228Y-46574D02*
X48228Y-46811D01*
X47726Y-47313D02*
X47569Y-47313D01*
X48228Y-46811D02*
X47726Y-47313D01*
X48818Y-44685D02*
X48818Y-43799D01*
X48818Y-43799D02*
X48523Y-43503D01*
X48523Y-43503D02*
X45826Y-43503D01*
X42618Y-42126D02*
X42618Y-41830D01*
X43572Y-43080D02*
X42618Y-42126D01*
X48228Y-46574D02*
X48228Y-45275D01*
X48228Y-45275D02*
X48818Y-44685D01*
G54D26*
X48228Y-45275D02*
X48818Y-44685D01*
G54D24*
X41629Y-43110D02*
X41337Y-43110D01*
X41337Y-43110D02*
X40058Y-41830D01*
X40058Y-41830D02*
X41732Y-41830D01*
X41732Y-41830D02*
X42618Y-41830D01*
X42229Y-44685D02*
X42229Y-46559D01*
X42984Y-47315D02*
X43789Y-47315D01*
X42229Y-46559D02*
X42984Y-47315D01*
X41653Y-51456D02*
X42401Y-50708D01*
X42401Y-49763D02*
X42519Y-49645D01*
X42401Y-50708D02*
X42401Y-49763D01*
X40263Y-53370D02*
X40944Y-52688D01*
X42640Y-49525D02*
X43789Y-49525D01*
X42519Y-49645D02*
X42640Y-49525D01*
X40944Y-52165D02*
X41653Y-51456D01*
X40944Y-52688D02*
X40944Y-52165D01*
G54D25*
X50263Y-49370D02*
X50263Y-48397D01*
X50263Y-48397D02*
X50787Y-47874D01*
X50263Y-46370D02*
X50787Y-46893D01*
X50787Y-46893D02*
X50787Y-47874D01*
G54D24*
X41297Y-51336D02*
X42125Y-50507D01*
X42125Y-49566D02*
X42244Y-49448D01*
X42125Y-50507D02*
X42125Y-49566D01*
X40263Y-52370D02*
X41297Y-51336D01*
X42487Y-49205D02*
X43789Y-49205D01*
X42244Y-49448D02*
X42487Y-49205D01*
G54D25*
X51263Y-46370D02*
X51771Y-46877D01*
X51771Y-46877D02*
X51771Y-49862D01*
X51771Y-49862D02*
X51263Y-50370D01*
X48228Y-51535D02*
X48267Y-51535D01*
X48425Y-51692D02*
X48425Y-53267D01*
X48267Y-51535D02*
X48425Y-51692D01*
X48858Y-54606D02*
X48858Y-53700D01*
X48858Y-53700D02*
X48425Y-53267D01*
X47027Y-50295D02*
X46779Y-50295D01*
X47519Y-50787D02*
X47027Y-50295D01*
X48188Y-50787D02*
X47519Y-50787D01*
X48228Y-50826D02*
X48188Y-50787D01*
X48228Y-51535D02*
X48228Y-50826D01*
G54D24*
X43789Y-48255D02*
X42743Y-48255D01*
X41240Y-46346D02*
X40263Y-45370D01*
X41240Y-46751D02*
X41240Y-46346D01*
X42743Y-48255D02*
X41240Y-46751D01*
X43789Y-48565D02*
X42659Y-48565D01*
X40464Y-46370D02*
X40263Y-46370D01*
X42659Y-48565D02*
X40464Y-46370D01*
X41929Y-46653D02*
X41929Y-45767D01*
X41929Y-45767D02*
X41240Y-45078D01*
X40263Y-43370D02*
X40515Y-43370D01*
X41240Y-44094D02*
X41240Y-45078D01*
X40515Y-43370D02*
X41240Y-44094D01*
X42900Y-47625D02*
X43789Y-47625D01*
X41929Y-46653D02*
X42900Y-47625D01*
X41732Y-46850D02*
X41673Y-46791D01*
X41673Y-45905D02*
X40944Y-45177D01*
X41673Y-46791D02*
X41673Y-45905D01*
X40263Y-44370D02*
X40275Y-44370D01*
X40944Y-45039D02*
X40944Y-45177D01*
X40275Y-44370D02*
X40944Y-45039D01*
X42827Y-47945D02*
X43789Y-47945D01*
X41732Y-46850D02*
X42827Y-47945D01*
G54D25*
X49488Y-50590D02*
X49488Y-50594D01*
X49488Y-50039D02*
X49488Y-50590D01*
X48740Y-49291D02*
X49488Y-50039D01*
X49488Y-50594D02*
X50263Y-51370D01*
X47569Y-48257D02*
X48375Y-48257D01*
X48375Y-48257D02*
X48425Y-48307D01*
X48528Y-47022D02*
X48528Y-46456D01*
X48503Y-47047D02*
X48528Y-47022D01*
X40952Y-47370D02*
X40263Y-47370D01*
X41614Y-48031D02*
X40952Y-47370D01*
X48917Y-45748D02*
X48917Y-45649D01*
X49409Y-45157D02*
X49409Y-44862D01*
X48917Y-45649D02*
X49409Y-45157D01*
X49409Y-44862D02*
X49645Y-44625D01*
X49645Y-44625D02*
X49645Y-44153D01*
X48769Y-47293D02*
X48917Y-47145D01*
X48917Y-47145D02*
X48917Y-45748D01*
X48523Y-47539D02*
X48435Y-47627D01*
X48435Y-47627D02*
X47569Y-47627D01*
X47569Y-47627D02*
X48435Y-47627D01*
X50791Y-43897D02*
X51263Y-44370D01*
X49901Y-43897D02*
X50791Y-43897D01*
X49645Y-44153D02*
X49901Y-43897D01*
X48435Y-47627D02*
X48769Y-47293D01*
G54D24*
X41214Y-53419D02*
X41366Y-53267D01*
X43110Y-52952D02*
X43110Y-51968D01*
X42795Y-53267D02*
X43110Y-52952D01*
X41366Y-53267D02*
X42795Y-53267D01*
G54D25*
X51732Y-52952D02*
X51732Y-52716D01*
X50748Y-53937D02*
X51732Y-52952D01*
X50263Y-50370D02*
X50759Y-50866D01*
X51732Y-51181D02*
X51732Y-52716D01*
X51417Y-50866D02*
X51732Y-51181D01*
X50759Y-50866D02*
X51417Y-50866D01*
G54D24*
X40263Y-54370D02*
X41214Y-53419D01*
X44392Y-50472D02*
X44569Y-50295D01*
X44133Y-50472D02*
X44392Y-50472D01*
G54D25*
X50263Y-50370D02*
X49724Y-49830D01*
X50263Y-48082D02*
X50263Y-47370D01*
X49724Y-48622D02*
X50263Y-48082D01*
X49724Y-49830D02*
X49724Y-48622D01*
X40618Y-49015D02*
X40263Y-49370D01*
X41574Y-49015D02*
X40618Y-49015D01*
X47569Y-48573D02*
X47017Y-48573D01*
X46850Y-48740D02*
X46850Y-49370D01*
X47017Y-48573D02*
X46850Y-48740D01*
X48779Y-48464D02*
X48582Y-48661D01*
X48100Y-48573D02*
X47569Y-48573D01*
X48188Y-48661D02*
X48100Y-48573D01*
X48582Y-48661D02*
X48188Y-48661D01*
X49826Y-45370D02*
X50263Y-45370D01*
X49370Y-45826D02*
X49826Y-45370D01*
X49370Y-47874D02*
X49370Y-45826D01*
X48779Y-48464D02*
X49370Y-47874D01*
X40263Y-50370D02*
X40968Y-50370D01*
X40968Y-50370D02*
X41496Y-49842D01*
X47569Y-48887D02*
X48139Y-48887D01*
X48346Y-49094D02*
X48346Y-49724D01*
X48139Y-48887D02*
X48346Y-49094D01*
X47569Y-48887D02*
X48986Y-48887D01*
X48986Y-48887D02*
X49015Y-48858D01*
X49724Y-46062D02*
X49606Y-46181D01*
X49606Y-48267D02*
X49015Y-48858D01*
X49606Y-46181D02*
X49606Y-48267D01*
X50767Y-45866D02*
X51263Y-45370D01*
X49921Y-45866D02*
X50767Y-45866D01*
X49724Y-46062D02*
X49921Y-45866D01*
G54D24*
X40263Y-51370D02*
X40874Y-51370D01*
X41850Y-50393D02*
X41850Y-49370D01*
X40874Y-51370D02*
X41850Y-50393D01*
G54D25*
X50000Y-54803D02*
X51653Y-54803D01*
X49645Y-54448D02*
X50000Y-54803D01*
X49645Y-53543D02*
X49645Y-54448D01*
G54D24*
X43789Y-48885D02*
X42335Y-48885D01*
X42335Y-48885D02*
X41850Y-49370D01*
G54D25*
X41440Y-48370D02*
X40263Y-48370D01*
X41574Y-48503D02*
X41440Y-48370D01*
X49118Y-45905D02*
X49118Y-45763D01*
X49645Y-45236D02*
X49645Y-44988D01*
X49118Y-45763D02*
X49645Y-45236D01*
X49645Y-44988D02*
X49645Y-45000D01*
X49645Y-45000D02*
X49645Y-44988D01*
X48818Y-47933D02*
X49118Y-47633D01*
X49645Y-44988D02*
X50263Y-44370D01*
X49118Y-47633D02*
X49118Y-45905D01*
X48818Y-47933D02*
X47579Y-47933D01*
X47579Y-47933D02*
X47569Y-47943D01*
X47579Y-47933D02*
X47569Y-47943D01*
G54D24*
X47928Y-45669D02*
X47928Y-44778D01*
X47928Y-44778D02*
X47440Y-44291D01*
X44891Y-46529D02*
X44891Y-45669D01*
X44891Y-45669D02*
X44891Y-45266D01*
X44891Y-45266D02*
X45866Y-44291D01*
X45866Y-44291D02*
X47440Y-44291D01*
X44576Y-45669D02*
X44291Y-45669D01*
X44291Y-45669D02*
X43410Y-45669D01*
X44576Y-46529D02*
X44576Y-45669D01*
X44576Y-45669D02*
X44576Y-44969D01*
X44576Y-44969D02*
X43897Y-44291D01*
G54D27*
X45708Y-47322D02*
X45000Y-47322D01*
X44685Y-47637D02*
X44685Y-48661D01*
X45000Y-47322D02*
X44685Y-47637D01*
X45708Y-47322D02*
X45669Y-47283D01*
X46151Y-47273D02*
X46732Y-47854D01*
X46732Y-47854D02*
X46732Y-48149D01*
G54D24*
X45263Y-51370D02*
X45783Y-51889D01*
X47928Y-51638D02*
X47928Y-51181D01*
X47677Y-51889D02*
X47928Y-51638D01*
X45783Y-51889D02*
X47677Y-51889D01*
X42810Y-50393D02*
X42810Y-51181D01*
X42810Y-51181D02*
X42677Y-51181D01*
X42677Y-51181D02*
X42244Y-51614D01*
X46151Y-46529D02*
X46151Y-47273D01*
X45521Y-47135D02*
X45669Y-47283D01*
X45521Y-47135D02*
X45521Y-46529D01*
X46151Y-47273D02*
X46141Y-47283D01*
X45669Y-47283D02*
X46141Y-47283D01*
G54D27*
X47755Y-54763D02*
X48228Y-54763D01*
X47598Y-54606D02*
X47755Y-54763D01*
X45039Y-54606D02*
X45196Y-54763D01*
X47440Y-54763D02*
X47598Y-54606D01*
X46929Y-54763D02*
X47440Y-54763D01*
X45196Y-54763D02*
X45669Y-54763D01*
X42480Y-54606D02*
X42637Y-54763D01*
X44881Y-54763D02*
X45039Y-54606D01*
X44370Y-54763D02*
X44881Y-54763D01*
X42637Y-54763D02*
X43110Y-54763D01*
X42716Y-43582D02*
X42716Y-43602D01*
X42755Y-43543D02*
X42716Y-43582D01*
G54D24*
X48528Y-45669D02*
X48528Y-45487D01*
X48528Y-45487D02*
X48976Y-45039D01*
X42716Y-44192D02*
X42716Y-43602D01*
X45039Y-42302D02*
X45039Y-41771D01*
X45039Y-41771D02*
X45472Y-41338D01*
X42224Y-43897D02*
X42421Y-43897D01*
X42716Y-44881D02*
X42913Y-45078D01*
X42716Y-44192D02*
X42716Y-44881D01*
X42421Y-43897D02*
X42716Y-44192D01*
X42810Y-45669D02*
X42913Y-45566D01*
X42913Y-45566D02*
X42913Y-45078D01*
X42810Y-46456D02*
X42810Y-45669D01*
X45839Y-50295D02*
X45839Y-50794D01*
X45839Y-50794D02*
X45263Y-51370D01*
X51082Y-40157D02*
X51263Y-40338D01*
X51263Y-40338D02*
X51263Y-41870D01*
G54D28*
X43917Y-40098D02*
X47421Y-40098D01*
X43917Y-42263D02*
X43917Y-40098D01*
X47421Y-40098D02*
X47421Y-42263D01*
G54D24*
X41634Y-43897D02*
X41634Y-44680D01*
X41634Y-44680D02*
X41629Y-44685D01*
X49512Y-40157D02*
X50492Y-40157D01*
X46299Y-54606D02*
X46299Y-53779D01*
X46299Y-53779D02*
X47598Y-52480D01*
X43740Y-54606D02*
X43740Y-53779D01*
X43740Y-53779D02*
X45039Y-52480D01*
G54D25*
X44263Y-51370D02*
X44263Y-51307D01*
X44889Y-50681D02*
X44889Y-50295D01*
X44263Y-51307D02*
X44889Y-50681D01*
X44889Y-50295D02*
X44889Y-49704D01*
X44889Y-49704D02*
X44881Y-49704D01*
X43410Y-50393D02*
X43700Y-50393D01*
X43700Y-50393D02*
X44389Y-49704D01*
X44389Y-49704D02*
X44881Y-49704D01*
X47637Y-50393D02*
X47928Y-50393D01*
X44881Y-49704D02*
X46948Y-49704D01*
X46948Y-49704D02*
X47637Y-50393D01*
G54D27*
X49173Y-52480D02*
X48858Y-52480D01*
X49212Y-52440D02*
X49173Y-52480D01*
X48528Y-50393D02*
X48528Y-50172D01*
X48528Y-50172D02*
X48818Y-49881D01*
X46299Y-52480D02*
X46929Y-52480D01*
X46929Y-52480D02*
X46968Y-52440D01*
X43740Y-52480D02*
X44409Y-52480D01*
X45669Y-52480D02*
X46299Y-52480D01*
X45669Y-52480D02*
X45669Y-52480D01*
X44409Y-52480D02*
X44409Y-52480D01*
X48528Y-50393D02*
X48528Y-51181D01*
G54D24*
X42952Y-43110D02*
X42229Y-43110D01*
X43188Y-43346D02*
X42952Y-43110D01*
X44960Y-43346D02*
X43188Y-43346D01*
X45196Y-43582D02*
X44960Y-43346D01*
G54D27*
X50866Y-48972D02*
X51263Y-49370D01*
X50866Y-48425D02*
X50866Y-48972D01*
G54D24*
X45836Y-45866D02*
X47337Y-45866D01*
X47337Y-45866D02*
X47928Y-46456D01*
X43700Y-46456D02*
X43410Y-46456D01*
X43996Y-46161D02*
X43700Y-46456D01*
X45570Y-45669D02*
X45570Y-45472D01*
X45206Y-46529D02*
X45206Y-45935D01*
X45836Y-45836D02*
X45836Y-45866D01*
X45836Y-45866D02*
X45836Y-46529D01*
X45669Y-45669D02*
X45836Y-45836D01*
X45472Y-45669D02*
X45570Y-45669D01*
X45570Y-45669D02*
X45669Y-45669D01*
X45206Y-45935D02*
X45472Y-45669D01*
X46299Y-42302D02*
X46299Y-42873D01*
X46299Y-42873D02*
X46062Y-43110D01*
X48228Y-42618D02*
X48228Y-43110D01*
X47834Y-43110D02*
X48228Y-43110D01*
X48228Y-43110D02*
X50003Y-43110D01*
X50003Y-43110D02*
X50263Y-43370D01*
X49263Y-41370D02*
X48912Y-41018D01*
X48912Y-41018D02*
X48912Y-40157D01*
X49263Y-41370D02*
X49763Y-41370D01*
X49763Y-41370D02*
X50263Y-41870D01*
X46299Y-42302D02*
X46299Y-42755D01*
X48228Y-42405D02*
X49263Y-41370D01*
X48228Y-42618D02*
X48228Y-42405D01*
X46653Y-43110D02*
X47834Y-43110D01*
X46299Y-42755D02*
X46653Y-43110D01*
G54D10*
G36*
X46933Y-47785D02*
X46925Y-47804D01*
X46925Y-47904D01*
X46925Y-48081D01*
X46933Y-48100D01*
X46925Y-48118D01*
X46925Y-48218D01*
X46925Y-48290D01*
X46902Y-48294D01*
X46804Y-48360D01*
X46804Y-48360D01*
X46637Y-48527D01*
X46572Y-48624D01*
X46549Y-48740D01*
X46549Y-49070D01*
X46490Y-49129D01*
X46425Y-49285D01*
X46425Y-49403D01*
X44889Y-49403D01*
X44881Y-49403D01*
X44432Y-49403D01*
X44432Y-49387D01*
X44423Y-49365D01*
X44432Y-49343D01*
X44432Y-49244D01*
X44432Y-49067D01*
X44423Y-49045D01*
X44432Y-49023D01*
X44432Y-48924D01*
X44432Y-48747D01*
X44423Y-48725D01*
X44432Y-48703D01*
X44432Y-48604D01*
X44432Y-48427D01*
X44425Y-48410D01*
X44432Y-48393D01*
X44432Y-48294D01*
X44432Y-48117D01*
X44425Y-48100D01*
X44432Y-48083D01*
X44432Y-47984D01*
X44432Y-47807D01*
X44423Y-47785D01*
X44432Y-47763D01*
X44432Y-47664D01*
X44432Y-47487D01*
X44425Y-47470D01*
X44432Y-47453D01*
X44432Y-47354D01*
X44432Y-47177D01*
X44429Y-47169D01*
X44437Y-47172D01*
X44537Y-47172D01*
X44714Y-47172D01*
X44733Y-47164D01*
X44752Y-47172D01*
X44852Y-47172D01*
X45029Y-47172D01*
X45048Y-47164D01*
X45067Y-47172D01*
X45167Y-47172D01*
X45344Y-47172D01*
X45363Y-47164D01*
X45382Y-47172D01*
X45482Y-47172D01*
X45449Y-47172D01*
X45485Y-47136D01*
X45556Y-47136D01*
X45592Y-47172D01*
X45560Y-47172D01*
X45659Y-47172D01*
X45678Y-47164D01*
X45697Y-47172D01*
X45797Y-47172D01*
X45974Y-47172D01*
X45993Y-47164D01*
X46012Y-47172D01*
X46112Y-47172D01*
X46079Y-47172D01*
X46115Y-47136D01*
X46186Y-47136D01*
X46222Y-47172D01*
X46190Y-47172D01*
X46289Y-47172D01*
X46308Y-47164D01*
X46327Y-47172D01*
X46427Y-47172D01*
X46604Y-47172D01*
X46623Y-47164D01*
X46642Y-47172D01*
X46742Y-47172D01*
X46919Y-47172D01*
X46928Y-47169D01*
X46925Y-47174D01*
X46925Y-47274D01*
X46925Y-47451D01*
X46933Y-47470D01*
X46925Y-47488D01*
X46925Y-47588D01*
X46925Y-47765D01*
X46933Y-47785D01*
X46933Y-47785D01*
G37*
G54D29*
X46933Y-47785D02*
X46925Y-47804D01*
X46925Y-47904D01*
X46925Y-48081D01*
X46933Y-48100D01*
X46925Y-48118D01*
X46925Y-48218D01*
X46925Y-48290D01*
X46902Y-48294D01*
X46804Y-48360D01*
X46804Y-48360D01*
X46637Y-48527D01*
X46572Y-48624D01*
X46549Y-48740D01*
X46549Y-49070D01*
X46490Y-49129D01*
X46425Y-49285D01*
X46425Y-49403D01*
X44889Y-49403D01*
X44881Y-49403D01*
X44432Y-49403D01*
X44432Y-49387D01*
X44423Y-49365D01*
X44432Y-49343D01*
X44432Y-49244D01*
X44432Y-49067D01*
X44423Y-49045D01*
X44432Y-49023D01*
X44432Y-48924D01*
X44432Y-48747D01*
X44423Y-48725D01*
X44432Y-48703D01*
X44432Y-48604D01*
X44432Y-48427D01*
X44425Y-48410D01*
X44432Y-48393D01*
X44432Y-48294D01*
X44432Y-48117D01*
X44425Y-48100D01*
X44432Y-48083D01*
X44432Y-47984D01*
X44432Y-47807D01*
X44423Y-47785D01*
X44432Y-47763D01*
X44432Y-47664D01*
X44432Y-47487D01*
X44425Y-47470D01*
X44432Y-47453D01*
X44432Y-47354D01*
X44432Y-47177D01*
X44429Y-47169D01*
X44437Y-47172D01*
X44537Y-47172D01*
X44714Y-47172D01*
X44733Y-47164D01*
X44752Y-47172D01*
X44852Y-47172D01*
X45029Y-47172D01*
X45048Y-47164D01*
X45067Y-47172D01*
X45167Y-47172D01*
X45344Y-47172D01*
X45363Y-47164D01*
X45382Y-47172D01*
X45482Y-47172D01*
X45449Y-47172D01*
X45485Y-47136D01*
X45556Y-47136D01*
X45592Y-47172D01*
X45560Y-47172D01*
X45659Y-47172D01*
X45678Y-47164D01*
X45697Y-47172D01*
X45797Y-47172D01*
X45974Y-47172D01*
X45993Y-47164D01*
X46012Y-47172D01*
X46112Y-47172D01*
X46079Y-47172D01*
X46115Y-47136D01*
X46186Y-47136D01*
X46222Y-47172D01*
X46190Y-47172D01*
X46289Y-47172D01*
X46308Y-47164D01*
X46327Y-47172D01*
X46427Y-47172D01*
X46604Y-47172D01*
X46623Y-47164D01*
X46642Y-47172D01*
X46742Y-47172D01*
X46919Y-47172D01*
X46928Y-47169D01*
X46925Y-47174D01*
X46925Y-47274D01*
X46925Y-47451D01*
X46933Y-47470D01*
X46925Y-47488D01*
X46925Y-47588D01*
X46925Y-47765D01*
X46933Y-47785D01*
M02*
