G04 (created by PCBNEW (22-Jun-2014 BZR 4027)-stable) date Tue Nov  3 08:39:22 2015*
%MOIN*%
G04 Gerber Fmt 3.4, Leading zero omitted, Abs format*
%FSLAX34Y34*%
G01*
G70*
G90*
G04 APERTURE LIST*
%ADD10C,0.00590551*%
%ADD11C,0.0354*%
%ADD12R,0.06X0.06*%
%ADD13C,0.06*%
%ADD14R,0.07X0.07*%
%ADD15C,0.0629921*%
G04 APERTURE END LIST*
G54D10*
G54D11*
X46535Y-41279D03*
X44803Y-41279D03*
G54D12*
X50263Y-43370D03*
G54D13*
X51263Y-43370D03*
X50263Y-44370D03*
X51263Y-44370D03*
X50263Y-45370D03*
X51263Y-45370D03*
X50263Y-46370D03*
X51263Y-46370D03*
X50263Y-47370D03*
X51263Y-47370D03*
G54D12*
X50263Y-49370D03*
G54D13*
X51263Y-49370D03*
X50263Y-50370D03*
X51263Y-50370D03*
X50263Y-51370D03*
X51263Y-51370D03*
G54D14*
X40058Y-40058D03*
X42618Y-40058D03*
X40058Y-41830D03*
X42618Y-41830D03*
G54D12*
X50263Y-41870D03*
G54D13*
X51263Y-41870D03*
G54D12*
X49263Y-41370D03*
G54D13*
X49263Y-42370D03*
G54D12*
X40263Y-43370D03*
G54D15*
X40263Y-44370D03*
X40263Y-45370D03*
X40263Y-46370D03*
X40263Y-47370D03*
X40263Y-48370D03*
X40263Y-49370D03*
X40263Y-50370D03*
X40263Y-51370D03*
X40263Y-52370D03*
X40263Y-53370D03*
X40263Y-54370D03*
G54D12*
X44263Y-51370D03*
G54D15*
X45263Y-51370D03*
X46263Y-51370D03*
X47263Y-51370D03*
M02*
