M48
;DRILL file {Pcbnew (22-Jun-2014 BZR 4027)-stable} date Tue Nov  3 08:39:58 2015
;FORMAT={-:-/ absolute / metric / decimal}
FMAT,2
METRIC,TZ
T1C0.635
T2C1.016
%
G90
G05
M71
T1
X105.4Y126.6
X105.6Y123.2
X105.6Y124.5
X105.7Y122.
X107.3Y131.1
X108.6Y110.6
X109.5Y132.
X109.5Y139.1
X111.75Y117.25
X112.1Y128.2
X112.7Y139.1
X112.8Y133.3
X113.5Y123.6
X114.8Y110.7
X115.5Y105.
X115.75Y115.5
X116.Y133.3
X116.Y139.1
X117.Y109.5
X118.7Y122.3
X119.Y125.4
X119.2Y139.1
X119.3Y133.2
X122.5Y139.1
X122.8Y126.3
X123.Y122.7
X123.2Y119.5
X123.25Y120.75
X123.8Y125.2
X124.Y121.75
X124.Y126.7
X124.4Y114.4
X125.Y133.2
X126.1Y136.
X128.9Y137.
X129.2Y123.
X131.2Y139.2
T2
X101.749Y101.75
X101.749Y106.25
X102.27Y110.16
X102.27Y112.7
X102.27Y115.24
X102.27Y117.78
X102.27Y120.32
X102.27Y122.86
X102.27Y125.4
X102.27Y127.94
X102.27Y130.48
X102.27Y133.02
X102.27Y135.56
X102.27Y138.1
X108.251Y101.75
X108.251Y106.25
X112.43Y130.48
X114.97Y130.48
X117.51Y130.48
X120.05Y130.48
X125.13Y105.08
X125.13Y107.62
X127.67Y106.35
X127.67Y110.16
X127.67Y112.7
X127.67Y115.24
X127.67Y117.78
X127.67Y120.32
X127.67Y125.4
X127.67Y127.94
X127.67Y130.48
X130.21Y106.35
X130.21Y110.16
X130.21Y112.7
X130.21Y115.24
X130.21Y117.78
X130.21Y120.32
X130.21Y125.4
X130.21Y127.94
X130.21Y130.48
T0
M30
